<!-- 
  "守护工具羊"图标 - SVG 源代码
  您可以直接复制下面的代码，保存为 .svg 文件。
  SVG (可缩放矢量图形) 是一种基于 XML 的图像格式，
  可以用代码来定义。它的优点是无论放大多少倍都不会模糊，
  并且可以方便地用代码修改颜色、形状等。
-->
<svg viewBox="0 0 100 100" width="256" height="256" xmlns="http://www.w3.org/2000/svg">
  <!-- 盾牌背景 -->
  <g id="shield">
    <!-- 盾牌外层（深色） -->
    <path d="M50 15 L15 35 V 70 C 15 85 50 95 50 95 C 50 95 85 85 85 70 V 35 Z" fill="#fbbf24"/>
    <!-- 盾牌内层（亮色），制造立体感 -->
    <path d="M50 20 L20 38 V 68 C 20 81 50 90 50 90 C 50 90 80 81 80 68 V 38 Z" fill="#fcd34d"/>
  </g>
  
  <!-- 小羊主题 -->
  <!-- 使用 <g> 标签将小羊所有部分组合在一起，方便整体移动 -->
  <g id="sheep" transform="translate(0, 5)">
    <!-- 身体 (使用不规则路径来模拟毛茸茸的感觉) -->
    <path d="M30 60 C20 50, 30 30, 45 35 C50 25, 60 25, 65 35 C80 30, 80 50, 70 60 C80 70, 65 80, 55 75 C40 80, 20 70, 30 60 Z" fill="#ffffff" />
    <!-- 头部 -->
    <circle cx="50" cy="45" r="12" fill="#fff"/>
    <!-- 耳朵 (使用椭圆并旋转) -->
    <ellipse cx="38" cy="42" rx="5" ry="8" fill="#f0f0f0" transform="rotate(-20 38 42)"/>
    <ellipse cx="62" cy="42" rx="5" ry="8" fill="#f0f0f0" transform="rotate(20 62 42)"/>
    <!-- 眼睛 -->
    <circle cx="46" cy="48" r="1.5" fill="#333"/>
    <circle cx="54" cy="48" r="1.5" fill="#333"/>
  </g>
</svg> 